<?xml version="1.0" encoding="UTF-8" standalone="no"?>
<!-- Created with Inkscape (http://www.inkscape.org/) -->

<svg
   xmlns:dc="http://purl.org/dc/elements/1.1/"
   xmlns:cc="http://creativecommons.org/ns#"
   xmlns:rdf="http://www.w3.org/1999/02/22-rdf-syntax-ns#"
   xmlns:svg="http://www.w3.org/2000/svg"
   xmlns="http://www.w3.org/2000/svg"
   xmlns:sodipodi="http://sodipodi.sourceforge.net/DTD/sodipodi-0.dtd"
   xmlns:inkscape="http://www.inkscape.org/namespaces/inkscape"
   width="526.71307mm"
   height="267.29868mm"
   viewBox="0 0 526.71307 267.29868"
   version="1.1"
   id="svg4506"
   inkscape:version="0.92.1 r15371"
   sodipodi:docname="art.svg">
  <defs
     id="defs4500" />
  <sodipodi:namedview
     id="base"
     pagecolor="#ffffff"
     bordercolor="#666666"
     borderopacity="1.0"
     inkscape:pageopacity="0.0"
     inkscape:pageshadow="2"
     inkscape:zoom="0.35355339"
     inkscape:cx="776.6027"
     inkscape:cy="816.50366"
     inkscape:document-units="mm"
     inkscape:current-layer="layer1"
     showgrid="false"
     fit-margin-top="0"
     fit-margin-left="0"
     fit-margin-right="0"
     fit-margin-bottom="0"
     inkscape:window-width="1920"
     inkscape:window-height="1017"
     inkscape:window-x="1912"
     inkscape:window-y="-8"
     inkscape:window-maximized="1" />
  <metadata
     id="metadata4503">
    <rdf:RDF>
      <cc:Work
         rdf:about="">
        <dc:format>image/svg+xml</dc:format>
        <dc:type
           rdf:resource="http://purl.org/dc/dcmitype/StillImage" />
        <dc:title></dc:title>
      </cc:Work>
    </rdf:RDF>
  </metadata>
  <g
     inkscape:label="Layer 1"
     inkscape:groupmode="layer"
     id="layer1"
     transform="translate(-38.744797,-60.745977)">
    <path
       style="fill:#000000;fill-opacity:0.17679557;stroke-width:1.00000012"
       d="M 284.99219 0 L 282.93945 4.9453125 C 281.81089 7.6650983 273.03243 29.663973 263.43164 53.832031 C 213.74563 178.9072 146.143 346.13157 79.152344 509.67188 C 65.663818 542.60054 51.71534 577.22277 48.15625 586.60938 C -5.0536043 726.94363 -14.172301 832.2522 20.818359 902.34766 C 27.466284 915.66512 40.514689 934.2299 50.091797 943.99805 C 74.307026 968.6962 107.15377 986.65563 147.42578 997.2168 C 165.91295 1002.0646 165.29073 1001.9395 185.75586 1004.9102 C 238.1211 1012.5112 296.31312 1012.0252 366.51172 1003.4004 C 379.73107 1001.7762 420.85021 995.70158 457.88867 989.90234 C 794.52605 937.19339 1146.888 885.66069 1476.3965 840.94336 C 1573.2003 827.80621 1572.0329 827.9721 1593.3672 824.34961 C 1730.4461 801.07388 1820.7608 760.16672 1867.4609 700.20508 C 1909.4227 646.32735 1912.7725 576.3383 1877.4668 491.0957 C 1854.6547 436.0179 1819.332 379.918 1761.9941 307.70117 L 1748.3652 290.53516 L 1490.1953 0 L 284.99219 0 z M 1483.8008 65.927734 L 1484.0098 66.164062 C 1483.9462 66.221307 1483.8934 66.282901 1483.834 66.341797 C 1483.8224 66.204713 1483.8124 66.064774 1483.8008 65.927734 z M 749.55469 92.103516 C 749.71383 92.177893 749.87099 92.255543 750.03125 92.328125 L 749.51562 92.226562 C 749.52909 92.185376 749.54328 92.145442 749.55469 92.103516 z M 1668.7852 274.10352 L 1669.4688 274.87109 L 1668.4258 274.66406 C 1668.5735 274.49257 1668.693 274.30457 1668.7852 274.10352 z "
       transform="matrix(0.26458333,0,0,0.26458333,38.744797,60.745977)"
       id="path5088-3" />
    <path
       style="fill:#000000;fill-opacity:0.17679557;stroke-width:0.26458335"
       d="m 129.82892,326.62941 c -10.99547,-0.66582 -20.44485,-3.63414 -28.00169,-8.79609 -2.98873,-2.04155 -7.33148,-6.18727 -9.74291,-9.30087 -12.69233,-16.38817 -15.75203,-44.18706 -9.17374,-83.34793 0.44001,-2.61937 2.27592,-12.32297 4.0798,-21.56354 8.95899,-45.8933 17.88705,-92.77446 24.33707,-127.793753 1.24633,-6.76671 2.39103,-12.9282 2.54379,-13.69218 l 0.27774,-1.38907 h 197.37065 197.37066 l 4.4215,3.75266 c 18.6012,15.78726 30.6583,28.52589 39.4163,41.644183 13.5545,20.30288 16.2917,38.63905 8.1779,54.78334 -9.0301,17.96731 -30.361,33.23663 -64.7362,46.33999 -5.35,2.03934 -5.0556,1.93622 -29.501,10.3333 -83.2094,28.58263 -171.99821,60.11182 -256.64587,91.13575 -9.31334,3.4134 -19.67177,7.10832 -23.01875,8.21094 -17.77342,5.85523 -32.84989,8.97959 -46.83125,9.70505 -5.46412,0.28352 -5.29647,0.28387 -10.344,-0.0217 z"
       id="path5088"
       inkscape:connector-curvature="0" />
  </g>
</svg>
