<svg height="512" viewBox="0 0 512 512" width="512" xmlns="http://www.w3.org/2000/svg">
  <path clip-rule="evenodd" d="M25.7 0h460.9C500.508 0 512 11.492 512 25.707V486.6c0 13.91-11.49 25.4-25.4 25.4H25.7C11.493 512 0 500.51 0 486.6V25.706C0 11.492 11.492 0 25.7 0zm253.74 119.758c-9.983 7.864-18.147 17.842-23.294 29.334l-3.018 7.26c-1.52 4.232-2.728 9.073-3.328 13.91-.3 2.12-.61 4.237-.61 6.35v4.238l.31 6.655 1.21 8.77h-.31l-3.328.298h-2.108c-25.71-.3-50.204-6.045-72.587-16.028l-13-6.35c-2.418-1.21-4.836-2.718-6.955-3.933-14.52-8.77-27.52-19.35-39.312-31.452-7.265-7.86-13.61-16.028-19.656-24.797-6.355 12.096-9.983 25.707-9.983 40.22 0 5.447.6 10.888 1.51 16.03.3 2.118.91 4.236 1.51 6.35 4.24 15.73 12.71 29.64 24.2 40.226l5.75 4.83-7.262-1.51c-9.372-2.42-18.745-5.447-27.52-9.07 1.21 18.75 8.475 35.99 19.967 49.6 10.58 13 25.09 22.68 41.73 27.52l-19.357 1.21-16.028-.91c12.1 29.34 39.62 50.5 72.577 53.23-30.238 22.072-67.74 34.772-107.962 35.072 29.64 17.848 63.815 29.04 100.408 31.147h24.193c113.716-6.344 203.83-100.396 203.83-215.624l-.31-11.19c4.236-3.325 8.783-6.958 12.71-10.89 9.673-9.373 18.437-19.656 26-30.54-11.8 7.56-26 12.094-41.42 12.094h-1.53l.62-.3c14.2-9.072 25.403-22.99 30.84-39.315-11.182 5.44-23.294 10.28-35.674 13.61l-1.82.3-9.072 2.117c-13.91-14.52-32.966-23.587-54.13-23.892h-1.51c-6.056 0-11.802.604-17.548 1.814-8.475 2.117-16.33 5.445-23.294 9.982l-5.436 3.626z" fill="#010101" fill-rule="evenodd"/>
</svg>
