<?xml version="1.0" encoding="UTF-8" standalone="no"?>
<svg
   xmlns:dc="http://purl.org/dc/elements/1.1/"
   xmlns:cc="http://creativecommons.org/ns#"
   xmlns:rdf="http://www.w3.org/1999/02/22-rdf-syntax-ns#"
   xmlns:svg="http://www.w3.org/2000/svg"
   xmlns="http://www.w3.org/2000/svg"
   version="1.1"
   viewBox="0 0 309.9 309.9"
   id="svg2">
  <metadata
     id="metadata12">
    <rdf:RDF>
      <cc:Work
         rdf:about="">
        <dc:format>image/svg+xml</dc:format>
        <dc:type
           rdf:resource="http://purl.org/dc/dcmitype/StillImage" />
        <dc:title></dc:title>
      </cc:Work>
    </rdf:RDF>
  </metadata>
  <defs
     id="defs10" />
  <style
     id="style4">
    .white { fill:#FFFFFF; }
  </style>
  <path
     style="fill:#ffffff;fill-opacity:1"
     id="path8"
     d="M 225.09961 0 A 23.4 23.4 0 0 0 201.69922 23.400391 A 23.4 23.4 0 0 0 225.09961 46.800781 A 23.4 23.4 0 0 0 248.5 23.400391 A 23.4 23.4 0 0 0 225.09961 0 z M 225.09961 71.300781 C 212.19961 71.300781 201.80078 81.699219 201.80078 94.699219 L 201.80078 245.95898 L 122.80273 200.36523 L 133.69922 189.40039 C 142.69922 180.40039 142.69922 165.40039 133.69922 156.40039 C 124.49922 147.40039 109.7 147.40039 100.5 156.40039 L 68.5 188.59961 C 66.098896 191.00071 64.34649 193.83202 63.226562 196.85938 C 58.967227 207.56677 63.171005 219.96618 73.199219 225.80078 L 213.19922 306.80078 C 214.80531 307.71855 216.47629 308.41926 218.17773 308.92578 C 218.21343 308.93703 218.24939 308.9479 218.28516 308.95898 C 218.45615 309.009 218.62725 309.05951 218.79883 309.10547 C 220.8313 309.6842 222.97557 310 225.19922 310 L 225.30078 309.90039 C 225.32635 309.90039 225.35141 309.89852 225.37695 309.89844 C 225.3867 309.89822 225.3965 309.89867 225.40625 309.89844 C 238.25767 309.84159 248.69922 299.46434 248.69922 286.5 L 248.69922 94.699219 C 248.69922 81.799219 238.30078 71.300781 225.30078 71.300781 L 225.09961 71.300781 z " />
</svg>
