<?xml version="1.0" encoding="UTF-8" standalone="no"?>
<svg
   xmlns:dc="http://purl.org/dc/elements/1.1/"
   xmlns:cc="http://creativecommons.org/ns#"
   xmlns:rdf="http://www.w3.org/1999/02/22-rdf-syntax-ns#"
   xmlns:svg="http://www.w3.org/2000/svg"
   xmlns="http://www.w3.org/2000/svg"
   xmlns:sodipodi="http://sodipodi.sourceforge.net/DTD/sodipodi-0.dtd"
   xmlns:inkscape="http://www.inkscape.org/namespaces/inkscape"
   viewBox="0 0 309.9 309.9"
   id="svg2"
   version="1.1"
   inkscape:version="0.91 r13725"
   sodipodi:docname="logo-letter.svg">
  <metadata
     id="metadata18">
    <rdf:RDF>
      <cc:Work
         rdf:about="">
        <dc:format>image/svg+xml</dc:format>
        <dc:type
           rdf:resource="http://purl.org/dc/dcmitype/StillImage" />
      </cc:Work>
    </rdf:RDF>
  </metadata>
  <defs
     id="defs16" />
  <sodipodi:namedview
     pagecolor="#ffffff"
     bordercolor="#666666"
     borderopacity="1"
     objecttolerance="10"
     gridtolerance="10"
     guidetolerance="10"
     inkscape:pageopacity="0"
     inkscape:pageshadow="2"
     inkscape:window-width="1920"
     inkscape:window-height="1017"
     id="namedview14"
     showgrid="false"
     inkscape:zoom="2.8284271"
     inkscape:cx="315.39157"
     inkscape:cy="116.59962"
     inkscape:window-x="-8"
     inkscape:window-y="-8"
     inkscape:window-maximized="1"
     inkscape:current-layer="svg2" />
  <style
     type="text/css"
     id="style4">.white { fill:#FFFFFF; }</style>
  <path
     class="white"
     d="M245.2 298.2L245.2 298.2c-6.5 11.2-20.8 15-32 8.6L73.3 225.9c-11.2-6.5-15-20.8-8.6-32l0 0c6.5-11.2 20.8-15 32-8.6l139.9 80.8C247.8 272.6 251.7 286.9 245.2 298.2z"
     id="path8"
     style="fill:#ffffff;fill-opacity:1" />
  <path
     class="white"
     d="m 225.15,309.9 0,0 c -12.9,0 -23.4,-10.5 -23.4,-23.4 l 0,-191.8 c 0,-12.9 10.5,-23.4 23.4,-23.4 l 0,0 c 12.9,0 23.4,10.5 23.4,23.4 l 0,191.8 c 0,12.9 -10.5,23.4 -23.4,23.4 z"
     id="path6"
     inkscape:connector-curvature="0"
     style="fill:#ffffff" />
  <path
     class="white"
     d="M68.5 221.6L68.5 221.6c-9.1-9.1-9.1-24 0-33.1l32.1-32.1c9.1-9.1 24-9.1 33.1 0l0 0c9.1 9.1 9.1 24 0 33.1l-32.1 32.1C92.4 230.7 77.6 230.7 68.5 221.6z"
     id="path10" />
  <circle
     class="white"
     cx="225.14999"
     cy="23.4"
     r="23.4"
     id="circle12"
     style="fill:#ffffff" />
</svg>
