<?xml version="1.0" encoding="UTF-8" standalone="no"?>
<svg
   xmlns:dc="http://purl.org/dc/elements/1.1/"
   xmlns:cc="http://creativecommons.org/ns#"
   xmlns:rdf="http://www.w3.org/1999/02/22-rdf-syntax-ns#"
   xmlns:svg="http://www.w3.org/2000/svg"
   xmlns="http://www.w3.org/2000/svg"
   xmlns:sodipodi="http://sodipodi.sourceforge.net/DTD/sodipodi-0.dtd"
   xmlns:inkscape="http://www.inkscape.org/namespaces/inkscape"
   sodipodi:docname="logo-letter.svg"
   version="1.1"
   viewBox="0 0 309.9 309.9"
   id="svg2"
   inkscape:version="0.92.1 r15371">
  <metadata
     id="metadata12">
    <rdf:RDF>
      <cc:Work
         rdf:about="">
        <dc:format>image/svg+xml</dc:format>
        <dc:type
           rdf:resource="http://purl.org/dc/dcmitype/StillImage" />
      </cc:Work>
    </rdf:RDF>
  </metadata>
  <defs
     id="defs10" />
  <sodipodi:namedview
     inkscape:current-layer="svg2"
     inkscape:window-maximized="1"
     inkscape:window-y="-8"
     inkscape:window-x="1912"
     inkscape:cy="122.77974"
     inkscape:cx="78.613899"
     inkscape:zoom="2.1539491"
     showgrid="false"
     id="namedview8"
     inkscape:window-height="1017"
     inkscape:window-width="1920"
     inkscape:pageshadow="2"
     inkscape:pageopacity="0"
     guidetolerance="10"
     gridtolerance="10"
     objecttolerance="10"
     borderopacity="1"
     bordercolor="#666666"
     pagecolor="#ffffff" />
  <style
     id="style4">
    .white { fill:#FFFFFF; }
  </style>
  <path
     id="path8"
     fill="#fff"
     d="M245.2 298.2c-6.5 11.2-20.8 15-32 8.6l-140-81c-11-6.4-15-20.7-8.5-32 6.5-11 20.8-15 32-8.5l140 80.8c11 6.6 15 21 8.5 32.2z"
     class="white" />
  <path
     id="path6"
     fill="#fff"
     d="M225.2 310c-13 0-23.4-10.6-23.4-23.5V94.7c0-13 10.4-23.4 23.3-23.4h.2c13 0 23.4 10.5 23.4 23.4v191.8c0 13-10.5 23.4-23.4 23.4z"
     class="white" />
  <path
     id="path10"
     d="M68.5 221.6c-9-9-9-24 0-33l32-32.2c9.2-9 24-9 33.2 0 9 9 9 24 0 33l-32 32.2c-9.3 9-24 9-33.2 0z"
     class="white" />
  <circle
     id="circle12"
     cx="225.1"
     cy="23.4"
     r="23.4"
     fill="#fff"
     class="white" />
</svg>
